<svg width="21" height="21" viewBox="0 0 21 21" fill="none" xmlns="http://www.w3.org/2000/svg">
<path d="M3.54688 9.8457L10.0293 17.3164C10.0879 17.384 10.1603 17.4382 10.2417 17.4754C10.3231 17.5125 10.4115 17.5318 10.501 17.5318C10.5904 17.5318 10.6789 17.5125 10.7602 17.4754C10.8416 17.4382 10.9141 17.384 10.9727 17.3164L17.4531 9.8457C17.4727 9.82319 17.4854 9.79551 17.4897 9.76598C17.494 9.73645 17.4897 9.70631 17.4774 9.67914C17.465 9.65197 17.4451 9.62893 17.4201 9.61275C17.395 9.59657 17.3658 9.58794 17.3359 9.58789L15.7539 9.58789C15.6641 9.58789 15.5781 9.62695 15.5176 9.69531L11.2422 14.623L11.2422 3.625C11.2422 3.53906 11.1719 3.46875 11.0859 3.46875L9.91407 3.46875C9.82813 3.46875 9.75782 3.53906 9.75782 3.625L9.75782 14.623L5.48243 9.69531C5.42383 9.62695 5.3379 9.58789 5.2461 9.58789L3.66407 9.58789C3.53126 9.58789 3.45899 9.74414 3.54688 9.8457Z" fill="white"/>
</svg>
